<svg id="Layer_1" data-name="Layer 1" xmlns="http://www.w3.org/2000/svg" viewBox="0 0 595.28 841.89"><defs><style>.cls-1{fill:#878787;}</style></defs><path class="cls-1" d="M326,434.88c-2.66,4.64-7.93,5.14-12.08,7.17-15.09,7.4-30.43,14.31-45.7,21.36a8.74,8.74,0,0,0-5.45,6.8c2.83.6,4.52-1.3,6.46-2.34,3.38-1.79,6.66-3.79,10.06-5.54,1.59-.82,3.51-2.34,5.1-1.25,1.89,1.3-.39,2.91-.67,4.41-.36,1.93.34,2.89,2.18,3.1a11.94,11.94,0,0,0,6.73-1.51c4.33-2.13,8.67-4.27,13.07-6.24,2-.91,4.14-2.29,6.86-.68-1.38,3-5.14,2.72-7.2,5.27,3.82-.42,8-3.15,9.47,2.95.36,1.46,2.11.09,2.9-.53,4.12-3.29,8.16-6.69,12.21-10.07a14.15,14.15,0,0,1,2.63-2.25c2-.93,4.71-3,6.17-.38,1.22,2.21-2.07,2.79-3.55,3.86-1.89,1.36-3.92,2.51-5.83,3.85-1.33.93-3.22,1.71-2.74,3.74.54,2.29,2.59,2.95,4.66,3,7.62.33,13.91-2.92,19.37-7.82,3.28-2.94,3.09-3.13,5.68.21a2,2,0,0,0,1.21.66c11.43,1.51,22.18,6.38,34.06,5.94,20.22-.75,33.54-12.15,44.45-27.53,2.35-3.31,1.07-6.06-2-9.05-6.06-5.88-13.58-6.87-21.15-7.49-14.82-1.21-29.64-1.5-43.84,4.22-2.71,1.1-5.48,2.21-5.76,5.54s2.37,5,4.9,6.28c7.07,3.51,14.5,6,22.47,6,10.07.06,20.27,1.66,30.95-3.33-1.78,4.23-4.67,5-7.15,5.46-16.15,3.17-31.77.87-47-5.12a7.3,7.3,0,0,1-1.76-.95c-2.86-2.18-6.75-3.84-6.51-8.18.25-4.52,4.06-6.46,7.64-7.72a95.46,95.46,0,0,1,63.6-.6,16,16,0,0,1,7.09,4.53c3.16,3.57,3.64,7.54.87,11.44-15.78,22.27-31.43,32.34-59.55,28.5a40.62,40.62,0,0,1-10.65-2.55c-9.18-3.93-17.77-3.35-26.38,1.79a18.06,18.06,0,0,1-13,2.27c-.81-.17-1.57-.61-2.38-.74-2.36-.36-2.84-4.88-6.09-2.95-3.59,2.12-6.92,4.52-8.71,8.63a143.18,143.18,0,0,1-33,46.56,41.44,41.44,0,0,1-13.87,8.72c-2.17.84-4.36,1-5.83-1.21s-1.49-4.06-.05-6.47c8.62-14.37,21-25.25,33.15-36.39.46-.42,1-.92,2.77.05-3.83,3.54-7.63,6.67-11,10.23q-9.72,10.39-19,21.22c-2.13,2.5-4.8,6.4-2.76,8.87,2.46,3,5.8-.64,8.15-2.27,13-9,21.7-21.94,30.3-34.86a69.14,69.14,0,0,0,4.78-8.19c.77-1.6,3.39-3.2.52-5.46-.92-.73.44-1.76,1.16-2.36,1.3-1.07,2.61-2.07,3.09-3.8.34-1.27,1-2.61,0-3.78s-2.24-.43-3.27-.05c-6.13,2.23-12.8,1.22-19,3.49-3.23,1.18-6.68.39-7.94-3.79-.9-3-2.57-1.13-3.84-.48-4,2.05-7.87,4.34-11.9,6.32-1.74.85-3.91,2-5.69.77-2.32-1.6.75-3.56.2-5.53-1.77-.71-3.16.44-4.6,1.08-40.49,18-80.93,36-121.46,53.84-15.09,6.64-30.38,12.8-45.6,19.14a59.25,59.25,0,0,1-5.69,1.89c-1.11.34-2.45.79-3-.72s.73-2.13,1.8-2.57c3.22-1.35,6.47-2.61,9.73-3.87,32.18-12.39,63.66-26.47,95.22-40.33,18.3-8,36.7-15.81,55.05-23.72,1.68-.72,3.32-1.53,5-2.33-6.31-5.35,2.26-7.47,2.25-12.06-4.84.95-9.63,1.82-14.39,2.83-16.82,3.59-33.69,6.39-51,5.3a50.38,50.38,0,0,1-21-5.95c-8.16-4.41-10.58-12.58-7-22.54a59.19,59.19,0,0,1,12.57-20.84c20.45-21.77,44-39.68,69.46-55.12,29.74-18,61.57-31.85,93.92-44.25,41.25-15.81,83.63-27.22,128.45-25.74,12.75.42,25.22,2.25,36.28,9.42,13.16,8.54,15.88,21.5,7.52,34.91-6.53,10.49-16,17.8-26,24.44-19.91,13.19-41.42,23.46-62.91,33.71-27.35,13-54.79,25.89-82.18,38.84-1.68.79-3.27,1.72-5.2.84,4.5-3.52,9.86-5.45,14.94-7.84,42.49-19.95,85.29-39.32,126-62.86,12-6.93,23.26-15,31.58-26.41,8.84-12.15,5.76-25.13-4.17-31.7-9.37-6.18-20.55-9.21-32-9.89-37.16-2.21-72.91,5-108,16.5-29.16,9.59-57.25,21.7-84.81,35.18-35.73,17.48-68.37,39.28-96.5,67.52-7.58,7.61-14.25,16-16.4,26.89-1.27,6.46-.3,12.21,5.63,16.36,4.68,3.28,10,4.43,15.44,5.11,15.75,2,31.19.13,46.56-3.4,8.91-2,18-3.44,27-5.12,1.28-.24,2.82-.79,3.49.85.58,1.4-.88,1.93-1.69,2.68-2.28,2.11-4.93,3.94-6.05,8.17,6.16-1.24,11.81-2.3,17-4.65,17-7.64,33.87-15.57,50.88-23.19C318.49,437.49,321.83,435,326,434.88Z"/></svg>